<?xml version="1.0" encoding="UTF-8" standalone="no"?>
<!-- Created with Inkscape (http://www.inkscape.org/) -->

<svg
   xmlns:dc="http://purl.org/dc/elements/1.1/"
   xmlns:cc="http://creativecommons.org/ns#"
   xmlns:rdf="http://www.w3.org/1999/02/22-rdf-syntax-ns#"
   xmlns:svg="http://www.w3.org/2000/svg"
   xmlns="http://www.w3.org/2000/svg"
   xmlns:xlink="http://www.w3.org/1999/xlink"
   xmlns:sodipodi="http://sodipodi.sourceforge.net/DTD/sodipodi-0.dtd"
   xmlns:inkscape="http://www.inkscape.org/namespaces/inkscape"
   width="243.18846mm"
   height="102.51643mm"
   viewBox="0 0 243.18846 102.51643"
   version="1.1"
   id="svg150"
   inkscape:version="0.92.3 (2405546, 2018-03-11)"
   sodipodi:docname="f1_score.svg">
  <title
     id="title2471">F1 score</title>
  <defs
     id="defs144">
    <marker
       inkscape:stockid="Arrow2Lend"
       orient="auto"
       refY="0"
       refX="0"
       id="Arrow2Lend"
       style="overflow:visible"
       inkscape:isstock="true">
      <path
         id="path1884"
         style="fill:#000000;fill-opacity:1;fill-rule:evenodd;stroke:#000000;stroke-width:0.625;stroke-linejoin:round;stroke-opacity:1"
         d="M 8.7185878,4.0337352 -2.2072895,0.01601326 8.7185884,-4.0017078 c -1.7454984,2.3720609 -1.7354408,5.6174519 -6e-7,8.035443 z"
         transform="matrix(-1.1,0,0,-1.1,-1.1,0)"
         inkscape:connector-curvature="0" />
    </marker>
    <marker
       inkscape:stockid="Arrow2Lstart"
       orient="auto"
       refY="0"
       refX="0"
       id="Arrow2Lstart"
       style="overflow:visible"
       inkscape:isstock="true">
      <path
         id="path1881"
         style="fill:#000000;fill-opacity:1;fill-rule:evenodd;stroke:#000000;stroke-width:0.625;stroke-linejoin:round;stroke-opacity:1"
         d="M 8.7185878,4.0337352 -2.2072895,0.01601326 8.7185884,-4.0017078 c -1.7454984,2.3720609 -1.7354408,5.6174519 -6e-7,8.035443 z"
         transform="matrix(1.1,0,0,1.1,1.1,0)"
         inkscape:connector-curvature="0" />
    </marker>
  </defs>
  <sodipodi:namedview
     id="base"
     pagecolor="#ffffff"
     bordercolor="#666666"
     borderopacity="1.0"
     inkscape:pageopacity="0.0"
     inkscape:pageshadow="2"
     inkscape:zoom="1.89"
     inkscape:cx="553.50694"
     inkscape:cy="141.02859"
     inkscape:document-units="mm"
     inkscape:current-layer="layer3"
     showgrid="false"
     inkscape:window-width="1920"
     inkscape:window-height="1001"
     inkscape:window-x="-9"
     inkscape:window-y="-9"
     inkscape:window-maximized="1"
     fit-margin-top="0"
     fit-margin-left="0"
     fit-margin-right="0"
     fit-margin-bottom="0" />
  <metadata
     id="metadata147">
    <rdf:RDF>
      <cc:Work
         rdf:about="">
        <dc:format>image/svg+xml</dc:format>
        <dc:type
           rdf:resource="http://purl.org/dc/dcmitype/StillImage" />
        <dc:title>F1 score</dc:title>
        <cc:license
           rdf:resource="http://creativecommons.org/licenses/by/4.0/" />
        <dc:creator>
          <cc:Agent>
            <dc:title>ischmahl</dc:title>
          </cc:Agent>
        </dc:creator>
        <dc:rights>
          <cc:Agent>
            <dc:title>CC-BY 4.0</dc:title>
          </cc:Agent>
        </dc:rights>
        <dc:source>https://github.com/Machine-Learning-OER-Collection/Machine-Learning-OER-Basics</dc:source>
      </cc:Work>
      <cc:License
         rdf:about="http://creativecommons.org/licenses/by/4.0/">
        <cc:permits
           rdf:resource="http://creativecommons.org/ns#Reproduction" />
        <cc:permits
           rdf:resource="http://creativecommons.org/ns#Distribution" />
        <cc:requires
           rdf:resource="http://creativecommons.org/ns#Notice" />
        <cc:requires
           rdf:resource="http://creativecommons.org/ns#Attribution" />
        <cc:permits
           rdf:resource="http://creativecommons.org/ns#DerivativeWorks" />
      </cc:License>
    </rdf:RDF>
  </metadata>
  <g
     inkscape:label="Ebene 1"
     inkscape:groupmode="layer"
     id="layer1"
     transform="translate(-15.354637,-133.19789)"
     style="display:inline">
    <path
       style="fill:none;stroke:#000000;stroke-width:0.27430192px;stroke-linecap:butt;stroke-linejoin:miter;stroke-opacity:1"
       d="m 122.94797,178.61073 h 57.32388 v -0.076"
       id="path1199-2"
       inkscape:connector-curvature="0" />
    <path
       sodipodi:type="star"
       style="display:inline;fill:#800080;stroke-width:0.26458332"
       id="path12-8"
       sodipodi:sides="5"
       sodipodi:cx="57.173744"
       sodipodi:cy="129.60393"
       sodipodi:r1="4.0709281"
       sodipodi:r2="2.035464"
       sodipodi:arg1="0.38050638"
       sodipodi:arg2="1.0088249"
       inkscape:flatsided="false"
       inkscape:rounded="0"
       inkscape:randomized="0"
       d="m 60.953506,131.11583 -2.695154,0.21052 -1.354504,2.33955 -1.033063,-2.49819 -2.643608,-0.56525 2.056686,-1.75448 -0.279335,-2.6889 2.304164,1.41386 2.47097,-1.09658 -0.632634,2.6283 z"
       inkscape:transform-center-x="0.16712968"
       inkscape:transform-center-y="0.62736501"
       transform="matrix(2.0038525,0,0,2.0332069,-46.941017,-71.919027)" />
    <path
       sodipodi:type="star"
       style="display:inline;fill:#88aa00;stroke-width:0.26458332"
       id="path177-9-4-7"
       sodipodi:sides="4"
       sodipodi:cx="102.92596"
       sodipodi:cy="97.390663"
       sodipodi:r1="4.2763128"
       sodipodi:r2="3.0238092"
       sodipodi:arg1="0.78539816"
       sodipodi:arg2="1.5707963"
       inkscape:flatsided="true"
       inkscape:rounded="0"
       inkscape:randomized="0"
       d="m 105.94977,100.41447 -6.047623,0 0,-6.047617 6.047623,0 z"
       inkscape:transform-center-y="2.3566695e-006"
       transform="matrix(2.1221908,0,0,2.3359414,-170.72334,-67.601159)"
       inkscape:transform-center-x="-3.1235413e-006" />
    <path
       sodipodi:type="star"
       style="display:inline;fill:#88aa00;stroke-width:0.26458332"
       id="path177-9-4-7-0"
       sodipodi:sides="4"
       sodipodi:cx="102.92596"
       sodipodi:cy="97.390663"
       sodipodi:r1="4.2763128"
       sodipodi:r2="3.0238092"
       sodipodi:arg1="0.78539816"
       sodipodi:arg2="1.5707963"
       inkscape:flatsided="true"
       inkscape:rounded="0"
       inkscape:randomized="0"
       d="m 105.94977,100.41447 -6.047623,0 0,-6.047617 6.047623,0 z"
       inkscape:transform-center-y="2.3566695e-006"
       transform="matrix(2.1221908,0,0,2.3359414,-188.76016,-35.602739)"
       inkscape:transform-center-x="-3.1235413e-006" />
    <flowRoot
       xml:space="preserve"
       id="flowRoot276"
       style="font-style:normal;font-variant:normal;font-weight:normal;font-stretch:normal;font-size:40px;line-height:1.25;font-family:sans-serif;-inkscape-font-specification:'sans-serif, Normal';font-variant-ligatures:normal;font-variant-caps:normal;font-variant-numeric:normal;font-feature-settings:normal;text-align:start;letter-spacing:0px;word-spacing:0px;writing-mode:lr-tb;text-anchor:start;display:inline;fill:#000000;fill-opacity:1;stroke:none"
       transform="matrix(0.26458333,0,0,0.26458333,172.38005,35.277779)"><flowRegion
         id="flowRegion278"
         style="font-style:normal;font-variant:normal;font-weight:normal;font-stretch:normal;font-size:40px;font-family:sans-serif;-inkscape-font-specification:'sans-serif, Normal';font-variant-ligatures:normal;font-variant-caps:normal;font-variant-numeric:normal;font-feature-settings:normal;text-align:start;writing-mode:lr-tb;text-anchor:start"><rect
           id="rect280"
           width="143.93939"
           height="65.151512"
           x="-489.39395"
           y="569.48938"
           style="font-style:normal;font-variant:normal;font-weight:normal;font-stretch:normal;font-size:40px;font-family:sans-serif;-inkscape-font-specification:'sans-serif, Normal';font-variant-ligatures:normal;font-variant-caps:normal;font-variant-numeric:normal;font-feature-settings:normal;text-align:start;writing-mode:lr-tb;text-anchor:start" /></flowRegion><flowPara
         id="flowPara284">+</flowPara></flowRoot>    <path
       transform="translate(-7.9166661e-8,-1.0416666e-6)"
       style="display:inline;fill:none;stroke:#000000;stroke-width:0.27430189px;stroke-linecap:butt;stroke-linejoin:miter;stroke-opacity:1"
       d="m 20.068591,179.01183 h 57.32388 v -0.076"
       id="path1199"
       inkscape:connector-curvature="0" />
    <path
       sodipodi:type="star"
       style="display:inline;fill:#88aa00;stroke-width:0.26458332"
       id="path177-9-4-7-3"
       sodipodi:sides="4"
       sodipodi:cx="102.92596"
       sodipodi:cy="97.390663"
       sodipodi:r1="4.2763128"
       sodipodi:r2="3.0238092"
       sodipodi:arg1="0.78539816"
       sodipodi:arg2="1.5707963"
       inkscape:flatsided="true"
       inkscape:rounded="0"
       inkscape:randomized="0"
       d="m 105.94977,100.41447 -6.047623,0 0,-6.047617 6.047623,0 z"
       inkscape:transform-center-y="2.3566695e-006"
       transform="matrix(2.1221908,0,0,2.3359414,-68.898846,-67.20027)"
       inkscape:transform-center-x="-3.1235413e-006" />
    <path
       sodipodi:type="star"
       style="display:inline;fill:#88aa00;stroke-width:0.26458332"
       id="path177-9-4-7-0-6"
       sodipodi:sides="4"
       sodipodi:cx="102.92596"
       sodipodi:cy="97.390663"
       sodipodi:r1="4.2763128"
       sodipodi:r2="3.0238092"
       sodipodi:arg1="0.78539816"
       sodipodi:arg2="1.5707963"
       inkscape:flatsided="true"
       inkscape:rounded="0"
       inkscape:randomized="0"
       d="m 105.94977,100.41447 -6.047623,0 0,-6.047617 6.047623,0 z"
       inkscape:transform-center-y="2.3566695e-006"
       transform="matrix(2.1221908,0,0,2.3359414,-83.346035,-35.85117)"
       inkscape:transform-center-x="-3.1235413e-006" />
    <flowRoot
       xml:space="preserve"
       id="flowRoot276-9"
       style="font-style:normal;font-variant:normal;font-weight:normal;font-stretch:normal;font-size:40px;line-height:1.25;font-family:sans-serif;-inkscape-font-specification:'sans-serif, Normal';font-variant-ligatures:normal;font-variant-caps:normal;font-variant-numeric:normal;font-feature-settings:normal;text-align:start;letter-spacing:0px;word-spacing:0px;writing-mode:lr-tb;text-anchor:start;display:inline;fill:#000000;fill-opacity:1;stroke:none"
       transform="matrix(0.26458333,0,0,0.26458333,279.73581,35.100809)"><flowRegion
         id="flowRegion278-3"
         style="font-style:normal;font-variant:normal;font-weight:normal;font-stretch:normal;font-size:40px;font-family:sans-serif;-inkscape-font-specification:'sans-serif, Normal';font-variant-ligatures:normal;font-variant-caps:normal;font-variant-numeric:normal;font-feature-settings:normal;text-align:start;writing-mode:lr-tb;text-anchor:start"><rect
           id="rect280-9"
           width="143.93939"
           height="65.151512"
           x="-489.39395"
           y="569.48938"
           style="font-style:normal;font-variant:normal;font-weight:normal;font-stretch:normal;font-size:40px;font-family:sans-serif;-inkscape-font-specification:'sans-serif, Normal';font-variant-ligatures:normal;font-variant-caps:normal;font-variant-numeric:normal;font-feature-settings:normal;text-align:start;writing-mode:lr-tb;text-anchor:start" /></flowRegion><flowPara
         id="flowPara284-4">+</flowPara></flowRoot>    <path
       sodipodi:type="star"
       style="display:inline;fill:#88aa00;stroke-width:0.26458332"
       id="path177-9-4-7-0-6-9"
       sodipodi:sides="4"
       sodipodi:cx="102.92596"
       sodipodi:cy="97.390663"
       sodipodi:r1="4.2763128"
       sodipodi:r2="3.0238092"
       sodipodi:arg1="0.78539816"
       sodipodi:arg2="1.5707963"
       inkscape:flatsided="true"
       inkscape:rounded="0"
       inkscape:randomized="0"
       d="m 105.94977,100.41447 -6.047623,0 0,-6.047617 6.047623,0 z"
       inkscape:transform-center-y="2.3566695e-006"
       transform="matrix(2.1221908,0,0,2.3359414,-45.856013,-35.883242)"
       inkscape:transform-center-x="-3.1235413e-006" />
    <ellipse
       transform="translate(-7.9166661e-8,-1.0416666e-6)"
       style="display:inline;fill:none;fill-opacity:1;stroke:#d40000;stroke-width:1.2414037;stroke-miterlimit:4;stroke-dasharray:none;stroke-dashoffset:0;stroke-opacity:1"
       id="path1500"
       cx="67.869751"
       cy="191.39868"
       rx="11.286988"
       ry="10.886103" />
    <ellipse
       transform="translate(-7.9166661e-8,-1.0416666e-6)"
       style="display:inline;fill:none;fill-opacity:1;stroke:#d40000;stroke-width:1.2414037;stroke-miterlimit:4;stroke-dasharray:none;stroke-dashoffset:0;stroke-opacity:1"
       id="path1500-9"
       cx="172.81378"
       cy="191.47211"
       rx="11.286988"
       ry="10.886103" />
    <path
       transform="translate(-7.9166661e-8,-1.0416666e-6)"
       style="display:inline;fill:none;stroke:#000000;stroke-width:0.26458332px;stroke-linecap:butt;stroke-linejoin:miter;stroke-opacity:1;marker-start:url(#Arrow2Lstart);marker-end:url(#Arrow2Lend)"
       d="m 90.047976,178.90429 h 19.190554 v 0"
       id="path2222"
       inkscape:connector-curvature="0" />
  </g>
  <g
     inkscape:groupmode="layer"
     id="layer2"
     inkscape:label="Ebene 2"
     style="display:inline">
    <path
       transform="translate(-15.354637,-133.19789)"
       sodipodi:type="star"
       style="display:inline;fill:#88aa00;stroke-width:0.26458332"
       id="path177-0-3"
       sodipodi:sides="4"
       sodipodi:cx="209.88705"
       sodipodi:cy="141.33617"
       sodipodi:r1="4.2763128"
       sodipodi:r2="3.0238092"
       sodipodi:arg1="0.78539816"
       sodipodi:arg2="1.5707963"
       inkscape:flatsided="true"
       inkscape:rounded="0"
       inkscape:randomized="0"
       d="m 212.91086,144.35998 -6.04762,0 0,-6.04762 6.04762,0 z"
       inkscape:transform-center-y="-1.6655418e-006" />
    <path
       transform="translate(-15.354637,-133.19789)"
       sodipodi:type="star"
       style="display:inline;fill:#800080;stroke-width:0.26458332"
       id="path12-0-9"
       sodipodi:sides="5"
       sodipodi:cx="209.97047"
       sodipodi:cy="151.41849"
       sodipodi:r1="4.0709281"
       sodipodi:r2="2.035464"
       sodipodi:arg1="0.38050638"
       sodipodi:arg2="1.0088249"
       inkscape:flatsided="false"
       inkscape:rounded="0"
       inkscape:randomized="0"
       d="m 213.75024,152.93039 -2.69516,0.21052 -1.3545,2.33955 -1.03306,-2.49819 -2.64361,-0.56525 2.05668,-1.75448 -0.27933,-2.6889 2.30416,1.41386 2.47097,-1.09658 -0.63263,2.6283 z"
       inkscape:transform-center-x="0.083403134"
       inkscape:transform-center-y="-2.6355462" />
    <text
       transform="translate(-15.354637,-133.19789)"
       xml:space="preserve"
       style="font-style:normal;font-weight:normal;font-size:10.58333302px;line-height:1.25;font-family:sans-serif;letter-spacing:0px;word-spacing:0px;display:inline;fill:#000000;fill-opacity:1;stroke:none;stroke-width:0.26458332"
       x="216.06204"
       y="142.55072"
       id="text3104-7-2"><tspan
         sodipodi:role="line"
         id="tspan3106-5-49"
         style="font-style:normal;font-variant:normal;font-weight:normal;font-stretch:normal;font-size:4.23333311px;font-family:Arial;-inkscape-font-specification:Arial;stroke-width:0.26458332"
         x="216.06204"
         y="142.55072">category 1: positive</tspan></text>
    <text
       transform="translate(-15.354637,-133.19789)"
       xml:space="preserve"
       style="font-style:normal;font-weight:normal;font-size:10.58333302px;line-height:1.25;font-family:sans-serif;letter-spacing:0px;word-spacing:0px;display:inline;fill:#000000;fill-opacity:1;stroke:none;stroke-width:0.26458332"
       x="216.01761"
       y="151.9561"
       id="text3104-7-1-8"><tspan
         sodipodi:role="line"
         id="tspan3106-5-4-2"
         style="font-style:normal;font-variant:normal;font-weight:normal;font-stretch:normal;font-size:4.23333311px;font-family:Arial;-inkscape-font-specification:Arial;stroke-width:0.26458332"
         x="216.01761"
         y="151.9561">category 2: negative</tspan></text>
    <rect
       transform="translate(-15.354637,-133.19789)"
       style="display:inline;fill:none;fill-opacity:1;stroke:#000000;stroke-width:0.31484601;stroke-miterlimit:4;stroke-dasharray:none;stroke-dashoffset:0;stroke-opacity:0.9453125"
       id="rect538"
       width="51.949238"
       height="21.824574"
       x="204.43643"
       y="135.3553" />
    <text
       transform="translate(-15.354637,-133.19789)"
       xml:space="preserve"
       style="font-style:normal;font-weight:normal;font-size:10.58333302px;line-height:1.25;font-family:sans-serif;letter-spacing:0px;word-spacing:0px;display:inline;fill:#000000;fill-opacity:1;stroke:none;stroke-width:0.26458332"
       x="33.987778"
       y="174.22139"
       id="text3104-1-9"><tspan
         sodipodi:role="line"
         style="font-style:normal;font-variant:normal;font-weight:normal;font-stretch:normal;font-size:4.23333311px;font-family:Arial;-inkscape-font-specification:Arial;stroke-width:0.26458332"
         x="33.987778"
         y="174.22139"
         id="tspan3156-2"><tspan
   style="font-style:normal;font-variant:normal;font-weight:bold;font-stretch:normal;font-family:Arial;-inkscape-font-specification:'Arial Bold';stroke-width:0.26458332"
   id="tspan3031">true</tspan> positive</tspan></text>
    <text
       transform="translate(-15.354637,-133.19789)"
       xml:space="preserve"
       style="font-style:normal;font-weight:normal;font-size:10.58333302px;line-height:1.25;font-family:sans-serif;letter-spacing:0px;word-spacing:0px;display:inline;fill:#000000;fill-opacity:1;stroke:none;stroke-width:0.26458332"
       x="15.290558"
       y="207.22215"
       id="text3104-1-9-3"><tspan
         sodipodi:role="line"
         style="font-style:normal;font-variant:normal;font-weight:normal;font-stretch:normal;font-size:4.23333311px;font-family:Arial;-inkscape-font-specification:Arial;stroke-width:0.26458332"
         x="15.290558"
         y="207.22215"
         id="tspan3156-2-3"><tspan
   style="font-style:normal;font-variant:normal;font-weight:bold;font-stretch:normal;font-family:Arial;-inkscape-font-specification:'Arial Bold';stroke-width:0.26458332"
   id="tspan3031-6">true</tspan> positive</tspan></text>
    <text
       transform="translate(-15.354637,-133.19789)"
       xml:space="preserve"
       style="font-style:normal;font-weight:normal;font-size:10.58333302px;line-height:1.25;font-family:sans-serif;letter-spacing:0px;word-spacing:0px;display:inline;fill:#000000;fill-opacity:1;stroke:none;stroke-width:0.26458332"
       x="54.775734"
       y="207.24799"
       id="text3104-1-9-8"><tspan
         sodipodi:role="line"
         style="font-style:normal;font-variant:normal;font-weight:normal;font-stretch:normal;font-size:4.23333311px;font-family:Arial;-inkscape-font-specification:Arial;stroke-width:0.26458332"
         x="54.775734"
         y="207.24799"
         id="tspan3156-2-6">false positive</tspan></text>
    <text
       transform="translate(-15.354637,-133.19789)"
       xml:space="preserve"
       style="font-style:normal;font-weight:normal;font-size:10.58333302px;line-height:1.25;font-family:sans-serif;letter-spacing:0px;word-spacing:0px;display:inline;fill:#000000;fill-opacity:1;stroke:none;stroke-width:0.26458332"
       x="137.01492"
       y="174.62228"
       id="text3104-1-9-0"><tspan
         sodipodi:role="line"
         style="font-style:normal;font-variant:normal;font-weight:normal;font-stretch:normal;font-size:4.23333311px;font-family:Arial;-inkscape-font-specification:Arial;stroke-width:0.26458332"
         x="137.01492"
         y="174.62228"
         id="tspan3156-2-37"><tspan
   style="font-style:normal;font-variant:normal;font-weight:bold;font-stretch:normal;font-family:Arial;-inkscape-font-specification:'Arial Bold';stroke-width:0.26458332"
   id="tspan3031-2">true</tspan> positive</tspan></text>
    <text
       transform="translate(-15.354637,-133.19789)"
       xml:space="preserve"
       style="font-style:normal;font-weight:normal;font-size:10.58333302px;line-height:1.25;font-family:sans-serif;letter-spacing:0px;word-spacing:0px;display:inline;fill:#000000;fill-opacity:1;stroke:none;stroke-width:0.26458332"
       x="121.25219"
       y="207.11047"
       id="text3104-1-9-3-8"><tspan
         sodipodi:role="line"
         style="font-style:normal;font-variant:normal;font-weight:normal;font-stretch:normal;font-size:4.23333311px;font-family:Arial;-inkscape-font-specification:Arial;stroke-width:0.26458332"
         x="121.25219"
         y="207.11047"
         id="tspan3156-2-3-5"><tspan
   style="font-style:normal;font-variant:normal;font-weight:bold;font-stretch:normal;font-family:Arial;-inkscape-font-specification:'Arial Bold';stroke-width:0.26458332"
   id="tspan3031-6-4">true</tspan> positive</tspan></text>
    <text
       transform="translate(-15.354637,-133.19789)"
       xml:space="preserve"
       style="font-style:normal;font-weight:normal;font-size:10.58333302px;line-height:1.25;font-family:sans-serif;letter-spacing:0px;word-spacing:0px;display:inline;fill:#000000;fill-opacity:1;stroke:none;stroke-width:0.26458332"
       x="158.06631"
       y="206.8223"
       id="text3104-1-9-8-4"><tspan
         sodipodi:role="line"
         style="font-style:normal;font-variant:normal;font-weight:normal;font-stretch:normal;font-size:4.23333311px;font-family:Arial;-inkscape-font-specification:Arial;stroke-width:0.26458332"
         x="158.06631"
         y="206.8223"
         id="tspan3156-2-6-5">false negative</tspan></text>
    <text
       transform="translate(-15.354637,-133.19789)"
       xml:space="preserve"
       style="font-style:normal;font-variant:normal;font-weight:normal;font-stretch:normal;font-size:5.64444447px;line-height:1.25;font-family:Arial;-inkscape-font-specification:'Arial, Normal';font-variant-ligatures:normal;font-variant-caps:normal;font-variant-numeric:normal;font-feature-settings:normal;text-align:start;letter-spacing:0px;word-spacing:0px;writing-mode:lr-tb;text-anchor:start;display:inline;fill:#000000;fill-opacity:1;stroke:none;stroke-width:0.26458332"
       x="20.396168"
       y="141.79543"
       id="text3104-1-0-6"
       inkscape:transform-center-x="24.938328"
       inkscape:transform-center-y="-4.5027537"><tspan
         style="stroke-width:0.26458332"
         sodipodi:role="line"
         id="tspan428"
         x="20.396168"
         y="141.79543">precision:</tspan></text>
    <text
       transform="translate(-15.354637,-133.19789)"
       xml:space="preserve"
       style="font-style:normal;font-variant:normal;font-weight:normal;font-stretch:normal;font-size:5.64444447px;line-height:1.25;font-family:Arial;-inkscape-font-specification:'Arial, Normal';font-variant-ligatures:normal;font-variant-caps:normal;font-variant-numeric:normal;font-feature-settings:normal;text-align:start;letter-spacing:0px;word-spacing:0px;writing-mode:lr-tb;text-anchor:start;display:inline;fill:#000000;fill-opacity:1;stroke:none;stroke-width:0.26458332"
       x="123.18281"
       y="141.21828"
       id="text3104-1-0-6-6"
       inkscape:transform-center-x="24.938328"
       inkscape:transform-center-y="-4.5027537"><tspan
         style="stroke-width:0.26458332"
         sodipodi:role="line"
         id="tspan428-3"
         x="123.18281"
         y="141.21828">recall:</tspan></text>
    <text
       transform="translate(-15.354637,-133.19789)"
       xml:space="preserve"
       style="font-style:normal;font-variant:normal;font-weight:normal;font-stretch:normal;font-size:5.64444447px;line-height:1.25;font-family:Arial;-inkscape-font-specification:'Arial, Normal';font-variant-ligatures:normal;font-variant-caps:normal;font-variant-numeric:normal;font-feature-settings:normal;text-align:start;letter-spacing:0px;word-spacing:0px;writing-mode:lr-tb;text-anchor:start;display:inline;fill:#000000;fill-opacity:1;stroke:none;stroke-width:0.26458332"
       x="42.967857"
       y="227.47089"
       id="text3104-1-0-6-7"
       inkscape:transform-center-x="24.938328"
       inkscape:transform-center-y="-4.5027537"><tspan
         sodipodi:role="line"
         id="tspan1855"
         x="42.967857"
         y="227.47089"><tspan
   style="font-style:normal;font-variant:normal;font-weight:bold;font-stretch:normal;font-family:Arial;-inkscape-font-specification:'Arial Bold'"
   id="tspan1859">F1 score</tspan> represents the correlation between the</tspan><tspan
         sodipodi:role="line"
         id="tspan1857"
         x="42.967857"
         y="234.52644">false positive and the false negative values.</tspan></text>
  </g>
  <g
     inkscape:groupmode="layer"
     id="layer3"
     inkscape:label="Ebene 3"
     style="display:inline">
    <text
       transform="translate(-15.354637,-133.19789)"
       xml:space="preserve"
       style="font-style:normal;font-variant:normal;font-weight:normal;font-stretch:normal;font-size:1.41111111px;line-height:1.25;font-family:Arial;-inkscape-font-specification:'Arial, Normal';font-variant-ligatures:normal;font-variant-caps:normal;font-variant-numeric:normal;font-feature-settings:normal;text-align:start;letter-spacing:0px;word-spacing:0px;writing-mode:lr;text-anchor:start;display:inline;fill:#000000;fill-opacity:1;stroke:none;stroke-width:0.26458332;"
       x="198.63353"
       y="230.71446"
       id="text240-4"><tspan
         sodipodi:role="line"
         id="tspan792">Reference: F1 score by ischmahl from</tspan><tspan
         sodipodi:role="line"
         id="tspan794">https://github.com/Machine-Learning-OER-Collection/Machine-Learning-OER-Basics</tspan><tspan
         sodipodi:role="line"
         id="tspan796">is licensed under CC-BY 4.0.</tspan></text>
    <a
       transform="translate(52.375551,-57.604591)"
       style="display:inline"
       id="a4003"
       xlink:href="https://creativecommons.org/licenses/by/4.0/">
      <g
         transform="matrix(0.09596983,0,0,0.08492487,101.14349,153.99667)"
         id="g260"
         inkscape:export-filename="/mnt/hgfs/Bov/Documents/Work/2007/cc/identity/srr buttons/big/by.png"
         inkscape:export-xdpi="300.23013"
         inkscape:export-ydpi="300.23013">
        <path
           id="path3817_1_"
           nodetypes="ccccccc"
           d="m 181.96579,0.51074 114.06396,0.20264 c 1.59375,0 3.01758,-0.23633 3.01758,3.18066 l -0.13965,37.56689 H 179.08737 V 3.75439 c 0,-1.68505 0.16309,-3.24365 2.87842,-3.24365 z"
           style="fill:#aab2ab"
           inkscape:connector-curvature="0" />
        <path
           d="m 297.29636,0 h -116.229 c -1.24658,0 -2.26123,1.01416 -2.26123,2.26074 v 39.49658 c 0,0.28174 0.229,0.51025 0.51074,0.51025 h 119.73047 c 0.28174,0 0.51074,-0.22852 0.51074,-0.51025 V 2.26074 C 299.55807,1.01416 298.54343,0 297.29636,0 Z M 181.06735,1.02148 h 116.229 c 0.68408,0 1.24023,0.55566 1.24023,1.23926 0,0 0,15.94824 0,27.44971 h -83.34424 c -3.04492,5.50586 -8.91113,9.24414 -15.64355,9.24414 -6.73535,0 -12.6001,-3.73486 -15.64355,-9.24414 h -4.07764 c 0,-11.50146 0,-27.44971 0,-27.44971 1e-5,-0.68359 0.55616,-1.23926 1.23975,-1.23926 z"
           id="path263"
           inkscape:connector-curvature="0" />
        <g
           enable-background="new    "
           id="g265">
          <path
             d="m 253.07761,32.95605 c 0.31738,0 0.60742,0.02832 0.87012,0.08398 0.26172,0.05566 0.48535,0.14746 0.67285,0.27539 0.18652,0.12695 0.33203,0.29688 0.43457,0.50781 0.10254,0.21191 0.1543,0.47266 0.1543,0.78418 0,0.33594 -0.0762,0.61523 -0.22949,0.83887 -0.15234,0.22461 -0.37891,0.40723 -0.67773,0.55078 0.41211,0.11816 0.71973,0.3252 0.92285,0.62109 0.20312,0.29589 0.30469,0.65234 0.30469,1.06934 0,0.33594 -0.0654,0.62695 -0.19629,0.87305 -0.13086,0.24512 -0.30762,0.44629 -0.52832,0.60156 -0.22168,0.15625 -0.47461,0.27148 -0.75781,0.3457 -0.28418,0.0752 -0.5752,0.1123 -0.875,0.1123 H 249.936 v -6.66406 h 3.14161 z m -0.1875,2.69532 c 0.26172,0 0.47656,-0.0625 0.64551,-0.18652 0.16797,-0.12402 0.25195,-0.3252 0.25195,-0.60449 0,-0.15527 -0.0283,-0.2832 -0.084,-0.38184 -0.0566,-0.09961 -0.13086,-0.17676 -0.22461,-0.2334 -0.0937,-0.05566 -0.20117,-0.09473 -0.32227,-0.11621 -0.1211,-0.02148 -0.24805,-0.03223 -0.37793,-0.03223 h -1.37402 v 1.55469 z m 0.0859,2.82812 c 0.14355,0 0.28027,-0.01367 0.41113,-0.04199 0.13086,-0.02832 0.24609,-0.0752 0.34668,-0.13965 0.0996,-0.06543 0.17871,-0.1543 0.23828,-0.2666 0.0596,-0.11133 0.0889,-0.25488 0.0889,-0.42871 0,-0.3418 -0.0967,-0.58594 -0.29004,-0.73242 -0.19336,-0.14551 -0.44922,-0.21875 -0.7666,-0.21875 h -1.59961 v 1.82812 z"
             id="path267"
             style="fill:#ffffff"
             inkscape:connector-curvature="0" />
          <path
             d="m 255.78854,32.95605 h 1.64355 l 1.56055,2.63184 1.55078,-2.63184 h 1.63379 l -2.47363,4.10645 v 2.55762 h -1.46875 v -2.59473 z"
             id="path269"
             style="fill:#ffffff"
             inkscape:connector-curvature="0" />
        </g>
        <g
           id="g5908_1_"
           transform="matrix(0.872921,0,0,0.872921,50.12536,143.2144)">
          <path
             id="path5906_1_"
             cx="296.35416"
             ry="22.939548"
             cy="264.3577"
             type="arc"
             rx="22.939548"
             d="m 186.90065,-141.46002 c 0.006,8.68079 -7.02786,15.7215 -15.70808,15.72711 -8.68022,0.006 -15.72206,-7.02734 -15.7271,-15.70807 0,-0.006 0,-0.0123 0,-0.019 -0.005,-8.68079 7.02786,-15.7215 15.70808,-15.72656 8.68135,-0.006 15.72206,7.02734 15.7271,15.70813 0,0.006 0,0.0123 0,0.0184 z"
             style="fill:#ffffff"
             inkscape:connector-curvature="0" />
          <g
             id="g5706_1_"
             transform="translate(-289.6157,99.0653)">
            <path
               id="path5708_1_"
               d="m 473.57574,-253.32751 c 3.48541,3.48541 5.22839,7.75391 5.22839,12.80219 0,5.04938 -1.71277,9.27203 -5.13831,12.66791 -3.63531,3.5766 -7.93182,5.36432 -12.88947,5.36432 -4.89777,0 -9.11987,-1.77319 -12.66513,-5.31952 -3.54581,-3.54584 -5.31845,-7.78302 -5.31845,-12.71271 0,-4.92859 1.77264,-9.19598 5.31845,-12.80219 3.4552,-3.48651 7.67728,-5.22949 12.66513,-5.22949 5.0483,-10e-6 9.31404,1.74297 12.79939,5.22949 z m -23.11798,2.34484 c -2.94672,2.97638 -4.41953,6.46289 -4.41953,10.46234 0,3.99835 1.45828,7.45526 4.37424,10.37067 2.9165,2.9165 6.38849,4.37421 10.41705,4.37421 4.02856,0 7.53015,-1.47223 10.50653,-4.4184 2.82593,-2.73645 4.23944,-6.17706 4.23944,-10.32648 0,-4.11804 -1.43646,-7.61346 -4.30768,-10.48468 -2.87067,-2.87067 -6.34991,-4.30658 -10.43829,-4.30658 -4.0884,1e-5 -7.54638,1.44318 -10.37176,4.32892 z m 7.75449,8.70319 c -0.45029,-0.98169 -1.1243,-1.47284 -2.02322,-1.47284 -1.58917,0 -2.38345,1.07007 -2.38345,3.20911 0,2.13953 0.79428,3.2085 2.38345,3.2085 1.04938,0 1.79892,-0.52075 2.24866,-1.56451 l 2.20276,1.17297 c -1.04993,1.86548 -2.62509,2.79846 -4.72549,2.79846 -1.6199,0 -2.91763,-0.4967 -3.89206,-1.48901 -0.9761,-0.99341 -1.46274,-2.36273 -1.46274,-4.10852 0,-1.71503 0.50229,-3.07654 1.50748,-4.08502 1.00519,-1.00854 2.25702,-1.51257 3.75781,-1.51257 2.22012,0 3.80981,0.87488 4.77081,2.62286 z m 10.36337,0 c -0.45087,-0.98169 -1.11145,-1.47284 -1.98242,-1.47284 -1.62103,0 -2.43213,1.07007 -2.43213,3.20911 0,2.13953 0.8111,3.2085 2.43213,3.2085 1.05109,0 1.78717,-0.52075 2.20728,-1.56451 l 2.25201,1.17297 c -1.04828,1.86548 -2.62122,2.79846 -4.71771,2.79846 -1.61768,0 -2.9126,-0.4967 -3.88647,-1.48901 -0.97217,-0.99341 -1.45935,-2.36273 -1.45935,-4.10852 0,-1.71503 0.49445,-3.07654 1.48285,-4.08502 0.98785,-1.00854 2.2453,-1.51257 3.7735,-1.51257 2.21619,0 3.80365,0.87488 4.76129,2.62286 z"
               inkscape:connector-curvature="0" />
          </g>
        </g>
        <g
           id="g275">
          <circle
             cx="255.55124"
             cy="15.31348"
             r="10.80664"
             id="circle277"
             style="fill:#ffffff" />
          <g
             id="g279">
            <path
               d="m 258.67819,12.18701 c 0,-0.4165 -0.33789,-0.75391 -0.75293,-0.75391 h -4.77344 c -0.41504,0 -0.75293,0.3374 -0.75293,0.75391 v 4.77295 h 1.33105 v 5.65186 h 3.61719 v -5.65186 h 1.33105 v -4.77295 z"
               id="path281"
               inkscape:connector-curvature="0" />
            <circle
               cx="255.53854"
               cy="9.1723604"
               r="1.63281"
               id="circle283" />
          </g>
          <path
             d="m 255.5239,3.40723 c -3.23242,0 -5.96875,1.12793 -8.20801,3.38379 -2.29785,2.3335 -3.44629,5.0957 -3.44629,8.28467 0,3.18897 1.14844,5.93164 3.44629,8.22656 2.29785,2.29443 5.03418,3.44189 8.20801,3.44189 3.21289,0 5.99805,-1.15625 8.35352,-3.47119 2.21973,-2.19727 3.33008,-4.92969 3.33008,-8.19727 0,-3.26758 -1.12988,-6.02881 -3.3877,-8.28467 -2.25977,-2.25585 -5.02442,-3.38378 -8.2959,-3.38378 z m 0.0293,2.09961 c 2.64844,0 4.89746,0.93408 6.74707,2.80127 1.86914,1.84717 2.80371,4.10303 2.80371,6.76758 0,2.68359 -0.91504,4.91064 -2.74512,6.68018 -1.92871,1.90625 -4.19629,2.85889 -6.80566,2.85889 -2.61035,0 -4.85938,-0.94287 -6.74707,-2.82959 -1.88965,-1.88672 -2.83301,-4.12305 -2.83301,-6.70947 0,-2.58691 0.9541,-4.84229 2.8623,-6.76758 1.83009,-1.8672 4.06934,-2.80128 6.71778,-2.80128 z"
             id="path285"
             style="clip-rule:evenodd;fill-rule:evenodd"
             inkscape:connector-curvature="0" />
        </g>
      </g>
    </a>
  </g>
</svg>
