<?xml version="1.0" encoding="UTF-8" standalone="no"?>
<!-- Created with Inkscape (http://www.inkscape.org/) -->

<svg
   xmlns:dc="http://purl.org/dc/elements/1.1/"
   xmlns:cc="http://creativecommons.org/ns#"
   xmlns:rdf="http://www.w3.org/1999/02/22-rdf-syntax-ns#"
   xmlns:svg="http://www.w3.org/2000/svg"
   xmlns="http://www.w3.org/2000/svg"
   xmlns:xlink="http://www.w3.org/1999/xlink"
   xmlns:sodipodi="http://sodipodi.sourceforge.net/DTD/sodipodi-0.dtd"
   xmlns:inkscape="http://www.inkscape.org/namespaces/inkscape"
   width="243.58128mm"
   height="184.38145mm"
   viewBox="0 0 243.58128 184.38145"
   version="1.1"
   id="svg8"
   inkscape:version="0.92.3 (2405546, 2018-03-11)"
   sodipodi:docname="recall_binary_classification.svg">
  <title
     id="title267">Recall of a binary classification</title>
  <defs
     id="defs2">
    <inkscape:path-effect
       effect="bspline"
       id="path-effect4980"
       is_visible="true"
       weight="33.333333"
       steps="2"
       helper_size="0"
       apply_no_weight="true"
       apply_with_weight="true"
       only_selected="false" />
    <marker
       inkscape:isstock="true"
       style="overflow:visible"
       id="marker3297"
       refX="0"
       refY="0"
       orient="auto"
       inkscape:stockid="Arrow2Lstart">
      <path
         transform="matrix(1.1,0,0,1.1,1.1,0)"
         d="M 8.7185878,4.0337352 -2.2072895,0.01601326 8.7185884,-4.0017078 c -1.7454984,2.3720609 -1.7354408,5.6174519 -6e-7,8.035443 z"
         style="fill:#000000;fill-opacity:1;fill-rule:evenodd;stroke:#000000;stroke-width:0.625;stroke-linejoin:round;stroke-opacity:1"
         id="path3295"
         inkscape:connector-curvature="0" />
    </marker>
    <marker
       inkscape:stockid="Arrow1Lstart"
       orient="auto"
       refY="0"
       refX="0"
       id="Arrow1Lstart"
       style="overflow:visible"
       inkscape:isstock="true">
      <path
         id="path1368"
         d="M 0,0 5,-5 -12.5,0 5,5 Z"
         style="fill:#000000;fill-opacity:1;fill-rule:evenodd;stroke:#000000;stroke-width:1.00000003pt;stroke-opacity:1"
         transform="matrix(0.8,0,0,0.8,10,0)"
         inkscape:connector-curvature="0" />
    </marker>
    <marker
       inkscape:stockid="Arrow1Mend"
       orient="auto"
       refY="0"
       refX="0"
       id="Arrow1Mend"
       style="overflow:visible"
       inkscape:isstock="true">
      <path
         id="path1377"
         d="M 0,0 5,-5 -12.5,0 5,5 Z"
         style="fill:#000000;fill-opacity:1;fill-rule:evenodd;stroke:#000000;stroke-width:1.00000003pt;stroke-opacity:1"
         transform="matrix(-0.4,0,0,-0.4,-4,0)"
         inkscape:connector-curvature="0" />
    </marker>
    <marker
       inkscape:stockid="Arrow2Lend"
       orient="auto"
       refY="0"
       refX="0"
       id="marker2515"
       style="overflow:visible"
       inkscape:isstock="true">
      <path
         id="path2513"
         style="fill:#000000;fill-opacity:1;fill-rule:evenodd;stroke:#000000;stroke-width:0.625;stroke-linejoin:round;stroke-opacity:1"
         d="M 8.7185878,4.0337352 -2.2072895,0.01601326 8.7185884,-4.0017078 c -1.7454984,2.3720609 -1.7354408,5.6174519 -6e-7,8.035443 z"
         transform="matrix(-1.1,0,0,-1.1,-1.1,0)"
         inkscape:connector-curvature="0" />
    </marker>
    <marker
       inkscape:stockid="Arrow2Lstart"
       orient="auto"
       refY="0"
       refX="0"
       id="marker2375"
       style="overflow:visible"
       inkscape:isstock="true">
      <path
         id="path2373"
         style="fill:#000000;fill-opacity:1;fill-rule:evenodd;stroke:#000000;stroke-width:0.625;stroke-linejoin:round;stroke-opacity:1"
         d="M 8.7185878,4.0337352 -2.2072895,0.01601326 8.7185884,-4.0017078 c -1.7454984,2.3720609 -1.7354408,5.6174519 -6e-7,8.035443 z"
         transform="matrix(1.1,0,0,1.1,1.1,0)"
         inkscape:connector-curvature="0" />
    </marker>
    <marker
       inkscape:stockid="Arrow2Mend"
       orient="auto"
       refY="0"
       refX="0"
       id="Arrow2Mend"
       style="overflow:visible"
       inkscape:isstock="true">
      <path
         id="path1395"
         style="fill:#000000;fill-opacity:1;fill-rule:evenodd;stroke:#000000;stroke-width:0.625;stroke-linejoin:round;stroke-opacity:1"
         d="M 8.7185878,4.0337352 -2.2072895,0.01601326 8.7185884,-4.0017078 c -1.7454984,2.3720609 -1.7354408,5.6174519 -6e-7,8.035443 z"
         transform="scale(-0.6)"
         inkscape:connector-curvature="0" />
    </marker>
    <marker
       inkscape:stockid="Arrow2Lend"
       orient="auto"
       refY="0"
       refX="0"
       id="Arrow2Lend"
       style="overflow:visible"
       inkscape:isstock="true">
      <path
         id="path1389"
         style="fill:#000000;fill-opacity:1;fill-rule:evenodd;stroke:#000000;stroke-width:0.625;stroke-linejoin:round;stroke-opacity:1"
         d="M 8.7185878,4.0337352 -2.2072895,0.01601326 8.7185884,-4.0017078 c -1.7454984,2.3720609 -1.7354408,5.6174519 -6e-7,8.035443 z"
         transform="matrix(-1.1,0,0,-1.1,-1.1,0)"
         inkscape:connector-curvature="0" />
    </marker>
    <marker
       inkscape:stockid="TriangleOutL"
       orient="auto"
       refY="0"
       refX="0"
       id="TriangleOutL"
       style="overflow:visible"
       inkscape:isstock="true">
      <path
         id="path1510"
         d="M 5.77,0 -2.88,5 V -5 Z"
         style="fill:#000000;fill-opacity:1;fill-rule:evenodd;stroke:#000000;stroke-width:1.00000003pt;stroke-opacity:1"
         transform="scale(0.8)"
         inkscape:connector-curvature="0" />
    </marker>
    <marker
       inkscape:stockid="Arrow1Lend"
       orient="auto"
       refY="0"
       refX="0"
       id="Arrow1Lend"
       style="overflow:visible"
       inkscape:isstock="true">
      <path
         id="path1371"
         d="M 0,0 5,-5 -12.5,0 5,5 Z"
         style="fill:#000000;fill-opacity:1;fill-rule:evenodd;stroke:#000000;stroke-width:1.00000003pt;stroke-opacity:1"
         transform="matrix(-0.8,0,0,-0.8,-10,0)"
         inkscape:connector-curvature="0" />
    </marker>
    <inkscape:path-effect
       effect="spiro"
       id="path-effect1879"
       is_visible="true" />
    <marker
       inkscape:stockid="Arrow2Lstart"
       orient="auto"
       refY="0"
       refX="0"
       id="marker1777"
       style="overflow:visible"
       inkscape:isstock="true">
      <path
         id="path1775"
         style="fill:#000000;fill-opacity:0.97265625;fill-rule:evenodd;stroke:#000000;stroke-width:0.625;stroke-linejoin:round;stroke-opacity:0.97265625"
         d="M 8.7185878,4.0337352 -2.2072895,0.01601326 8.7185884,-4.0017078 c -1.7454984,2.3720609 -1.7354408,5.6174519 -6e-7,8.035443 z"
         transform="matrix(1.1,0,0,1.1,1.1,0)"
         inkscape:connector-curvature="0" />
    </marker>
    <marker
       inkscape:stockid="Arrow2Lstart"
       orient="auto"
       refY="0"
       refX="0"
       id="Arrow2Lstart"
       style="overflow:visible"
       inkscape:isstock="true">
      <path
         id="path1386"
         style="fill:#000000;fill-opacity:1;fill-rule:evenodd;stroke:#000000;stroke-width:0.625;stroke-linejoin:round;stroke-opacity:1"
         d="M 8.7185878,4.0337352 -2.2072895,0.01601326 8.7185884,-4.0017078 c -1.7454984,2.3720609 -1.7354408,5.6174519 -6e-7,8.035443 z"
         transform="matrix(1.1,0,0,1.1,1.1,0)"
         inkscape:connector-curvature="0" />
    </marker>
    <marker
       inkscape:isstock="true"
       style="overflow:visible"
       id="marker3297-3"
       refX="0"
       refY="0"
       orient="auto"
       inkscape:stockid="Arrow2Lstart">
      <path
         inkscape:connector-curvature="0"
         transform="matrix(1.1,0,0,1.1,1.1,0)"
         d="M 8.7185878,4.0337352 -2.2072895,0.01601326 8.7185884,-4.0017078 c -1.7454984,2.3720609 -1.7354408,5.6174519 -6e-7,8.035443 z"
         style="fill:#000000;fill-opacity:1;fill-rule:evenodd;stroke:#000000;stroke-width:0.625;stroke-linejoin:round;stroke-opacity:1"
         id="path3295-9" />
    </marker>
  </defs>
  <sodipodi:namedview
     id="base"
     pagecolor="#ffffff"
     bordercolor="#666666"
     borderopacity="1.0"
     inkscape:pageopacity="0.0"
     inkscape:pageshadow="2"
     inkscape:zoom="1.3289991"
     inkscape:cx="598.87645"
     inkscape:cy="146.01614"
     inkscape:document-units="mm"
     inkscape:current-layer="layer4"
     showgrid="false"
     inkscape:window-width="1920"
     inkscape:window-height="1001"
     inkscape:window-x="-9"
     inkscape:window-y="-9"
     inkscape:window-maximized="1"
     fit-margin-top="0"
     fit-margin-left="0"
     fit-margin-right="0"
     fit-margin-bottom="0" />
  <metadata
     id="metadata5">
    <rdf:RDF>
      <cc:Work
         rdf:about="">
        <dc:format>image/svg+xml</dc:format>
        <dc:type
           rdf:resource="http://purl.org/dc/dcmitype/StillImage" />
        <dc:title>Recall of a binary classification</dc:title>
        <cc:license
           rdf:resource="http://creativecommons.org/licenses/by/4.0/" />
        <dc:creator>
          <cc:Agent>
            <dc:title>ischmahl</dc:title>
          </cc:Agent>
        </dc:creator>
        <dc:rights>
          <cc:Agent>
            <dc:title>CC-BY 4.0</dc:title>
          </cc:Agent>
        </dc:rights>
        <dc:source>https://github.com/Machine-Learning-OER-Collection/Machine-Learning-OER-Basics</dc:source>
      </cc:Work>
      <cc:License
         rdf:about="http://creativecommons.org/licenses/by/4.0/">
        <cc:permits
           rdf:resource="http://creativecommons.org/ns#Reproduction" />
        <cc:permits
           rdf:resource="http://creativecommons.org/ns#Distribution" />
        <cc:requires
           rdf:resource="http://creativecommons.org/ns#Notice" />
        <cc:requires
           rdf:resource="http://creativecommons.org/ns#Attribution" />
        <cc:permits
           rdf:resource="http://creativecommons.org/ns#DerivativeWorks" />
      </cc:License>
    </rdf:RDF>
  </metadata>
  <g
     inkscape:label="Ebene 1"
     inkscape:groupmode="layer"
     id="layer1"
     style="display:inline"
     transform="translate(-67.585568,42.062477)">
    <flowRoot
       xml:space="preserve"
       id="flowRoot3094"
       style="font-style:normal;font-weight:normal;font-size:40px;line-height:1.25;font-family:sans-serif;letter-spacing:0px;word-spacing:0px;fill:#000000;fill-opacity:1;stroke:none"
       transform="scale(0.26458333)"><flowRegion
         id="flowRegion3096"><rect
           id="rect3098"
           width="134.83716"
           height="44.509354"
           x="389.45682"
           y="597.57117" /></flowRegion><flowPara
         id="flowPara3100">feasdjk</flowPara></flowRoot>    <path
       style="display:inline;fill:none;stroke:#000000;stroke-width:0.8364526;stroke-linecap:butt;stroke-linejoin:miter;stroke-miterlimit:4;stroke-dasharray:none;stroke-opacity:1"
       d="M 109.93026,49.050827 H 222.09094 V 48.701723"
       id="path274"
       inkscape:connector-curvature="0" />
    <path
       sodipodi:type="star"
       style="display:inline;fill:#88aa00;stroke-width:0.26458332"
       id="path177-9-4-7"
       sodipodi:sides="4"
       sodipodi:cx="102.92596"
       sodipodi:cy="97.390663"
       sodipodi:r1="4.2763128"
       sodipodi:r2="3.0238092"
       sodipodi:arg1="0.78539816"
       sodipodi:arg2="1.5707963"
       inkscape:flatsided="true"
       inkscape:rounded="0"
       inkscape:randomized="0"
       d="m 105.94977,100.41447 -6.047623,0 0,-6.047617 6.047623,0 z"
       inkscape:transform-center-y="2.3566695e-006"
       transform="matrix(2.1221908,0,0,2.3359414,-75.736148,-113.69922)"
       inkscape:transform-center-x="-3.1235413e-006" />
    <path
       sodipodi:type="star"
       style="display:inline;fill:none;stroke:#b3b3b3;stroke-width:0.26458332;stroke-opacity:1"
       id="path12-8"
       sodipodi:sides="5"
       sodipodi:cx="57.173744"
       sodipodi:cy="129.60393"
       sodipodi:r1="4.0709281"
       sodipodi:r2="2.035464"
       sodipodi:arg1="0.38050638"
       sodipodi:arg2="1.0088249"
       inkscape:flatsided="false"
       inkscape:rounded="0"
       inkscape:randomized="0"
       d="m 60.953506,131.11583 -2.695154,0.21052 -1.354504,2.33955 -1.033063,-2.49819 -2.643608,-0.56525 2.056686,-1.75448 -0.279335,-2.6889 2.304164,1.41386 2.47097,-1.09658 -0.632634,2.6283 z"
       inkscape:transform-center-x="0.16712968"
       inkscape:transform-center-y="0.62736501"
       transform="matrix(2.0038525,0,0,2.0332069,29.179653,-188.15649)" />
    <path
       sodipodi:type="star"
       style="display:inline;fill:#88aa00;stroke-width:0.26458332"
       id="path177-9-4-7-0-3"
       sodipodi:sides="4"
       sodipodi:cx="102.92596"
       sodipodi:cy="97.390663"
       sodipodi:r1="4.2763128"
       sodipodi:r2="3.0238092"
       sodipodi:arg1="0.78539816"
       sodipodi:arg2="1.5707963"
       inkscape:flatsided="true"
       inkscape:rounded="0"
       inkscape:randomized="0"
       d="m 105.94977,100.41447 -6.047623,0 0,-6.047617 6.047623,0 z"
       inkscape:transform-center-y="2.3566695e-006"
       transform="matrix(2.1221908,0,0,2.3359414,-34.066305,-113.69925)"
       inkscape:transform-center-x="-3.1235413e-006" />
    <path
       sodipodi:type="star"
       style="display:inline;fill:none;stroke:#b3b3b3;stroke-width:0.26458332;stroke-opacity:1"
       id="path12-8-2"
       sodipodi:sides="5"
       sodipodi:cx="57.173744"
       sodipodi:cy="129.60393"
       sodipodi:r1="4.0709281"
       sodipodi:r2="2.035464"
       sodipodi:arg1="0.38050638"
       sodipodi:arg2="1.0088249"
       inkscape:flatsided="false"
       inkscape:rounded="0"
       inkscape:randomized="0"
       d="m 60.953506,131.11583 -2.695154,0.21052 -1.354504,2.33955 -1.033063,-2.49819 -2.643608,-0.56525 2.056686,-1.75448 -0.279335,-2.6889 2.304164,1.41386 2.47097,-1.09658 -0.632634,2.6283 z"
       inkscape:transform-center-x="0.16712968"
       inkscape:transform-center-y="0.62736501"
       transform="matrix(2.0038525,0,0,2.0332069,70.106452,-187.97976)" />
    <rect
       style="display:inline;fill:none;fill-opacity:1;stroke:#000000;stroke-width:1.48556924;stroke-miterlimit:4;stroke-dasharray:none;stroke-dashoffset:0;stroke-opacity:1"
       id="rect204-0"
       width="82.589241"
       height="76.76545"
       x="124.45716"
       y="59.406815" />
    <path
       style="display:inline;fill:none;stroke:#000000;stroke-width:0.30087182px;stroke-linecap:butt;stroke-linejoin:miter;stroke-opacity:1"
       d="m 164.24983,59.988189 v 75.310801 h 0.19547 V 59.988189 Z"
       id="path1089-5"
       inkscape:connector-curvature="0" />
    <path
       style="display:inline;fill:none;stroke:#000000;stroke-width:0.30898958px;stroke-linecap:butt;stroke-linejoin:miter;stroke-opacity:1"
       d="m 125.21944,99.124906 h 82.15826 v 0.20631"
       id="path1091-3"
       inkscape:connector-curvature="0" />
    <path
       sodipodi:type="star"
       style="display:inline;fill:none;stroke:#b3b3b3;stroke-width:0.26458332;stroke-opacity:1"
       id="path177-9-4-7-6"
       sodipodi:sides="4"
       sodipodi:cx="102.92596"
       sodipodi:cy="97.390663"
       sodipodi:r1="4.2763128"
       sodipodi:r2="3.0238092"
       sodipodi:arg1="0.78539816"
       sodipodi:arg2="1.5707963"
       inkscape:flatsided="true"
       inkscape:rounded="0"
       inkscape:randomized="0"
       d="m 105.94977,100.41447 -6.047623,0 0,-6.047617 6.047623,0 z"
       inkscape:transform-center-y="2.3566695e-006"
       transform="matrix(2.1221908,0,0,2.3359414,-75.780048,-212.68138)"
       inkscape:transform-center-x="-3.1235413e-006" />
    <path
       sodipodi:type="star"
       style="display:inline;fill:none;stroke:#b3b3b3;stroke-width:0.26458332;stroke-opacity:1"
       id="path12-8-3"
       sodipodi:sides="5"
       sodipodi:cx="57.173744"
       sodipodi:cy="129.60393"
       sodipodi:r1="4.0709281"
       sodipodi:r2="2.035464"
       sodipodi:arg1="0.38050638"
       sodipodi:arg2="1.0088249"
       inkscape:flatsided="false"
       inkscape:rounded="0"
       inkscape:randomized="0"
       d="m 60.953506,131.11583 -2.695154,0.21052 -1.354504,2.33955 -1.033063,-2.49819 -2.643608,-0.56525 2.056686,-1.75448 -0.279335,-2.6889 2.304164,1.41386 2.47097,-1.09658 -0.632634,2.6283 z"
       inkscape:transform-center-x="0.16712968"
       inkscape:transform-center-y="0.62736501"
       transform="matrix(2.0038525,0,0,2.0332069,29.135143,-287.13865)" />
    <path
       sodipodi:type="star"
       style="display:inline;fill:#88aa00;stroke-width:0.26458332"
       id="path177-9-4-7-0-3-1"
       sodipodi:sides="4"
       sodipodi:cx="102.92596"
       sodipodi:cy="97.390663"
       sodipodi:r1="4.2763128"
       sodipodi:r2="3.0238092"
       sodipodi:arg1="0.78539816"
       sodipodi:arg2="1.5707963"
       inkscape:flatsided="true"
       inkscape:rounded="0"
       inkscape:randomized="0"
       d="m 105.94977,100.41447 -6.047623,0 0,-6.047617 6.047623,0 z"
       inkscape:transform-center-y="2.3566695e-006"
       transform="matrix(2.1221908,0,0,2.3359414,-34.110445,-212.68141)"
       inkscape:transform-center-x="-3.1235413e-006" />
    <path
       sodipodi:type="star"
       style="display:inline;fill:none;stroke:#b3b3b3;stroke-width:0.26458332;stroke-opacity:1"
       id="path12-8-2-4"
       sodipodi:sides="5"
       sodipodi:cx="57.173744"
       sodipodi:cy="129.60393"
       sodipodi:r1="4.0709281"
       sodipodi:r2="2.035464"
       sodipodi:arg1="0.38050638"
       sodipodi:arg2="1.0088249"
       inkscape:flatsided="false"
       inkscape:rounded="0"
       inkscape:randomized="0"
       d="m 60.953506,131.11583 -2.695154,0.21052 -1.354504,2.33955 -1.033063,-2.49819 -2.643608,-0.56525 2.056686,-1.75448 -0.279335,-2.6889 2.304164,1.41386 2.47097,-1.09658 -0.632634,2.6283 z"
       inkscape:transform-center-x="0.16712968"
       inkscape:transform-center-y="0.62736501"
       transform="matrix(2.0038525,0,0,2.0332069,70.061712,-286.96192)" />
    <rect
       style="display:inline;fill:none;fill-opacity:1;stroke:#000000;stroke-width:1.48556924;stroke-miterlimit:4;stroke-dasharray:none;stroke-dashoffset:0;stroke-opacity:1"
       id="rect204-0-7"
       width="82.589241"
       height="76.76545"
       x="124.41238"
       y="-39.575359" />
    <path
       style="display:inline;fill:none;stroke:#000000;stroke-width:0.30087182px;stroke-linecap:butt;stroke-linejoin:miter;stroke-opacity:1"
       d="m 164.20538,-38.993987 v 75.310803 h 0.19547 v -75.310803 z"
       id="path1089-5-5"
       inkscape:connector-curvature="0" />
    <path
       style="display:inline;fill:none;stroke:#000000;stroke-width:0.30898958px;stroke-linecap:butt;stroke-linejoin:miter;stroke-opacity:1"
       d="m 125.17477,0.14272876 h 82.15873 v 0.206308"
       id="path1091-3-1"
       inkscape:connector-curvature="0" />
  </g>
  <g
     inkscape:groupmode="layer"
     id="layer2"
     inkscape:label="Ebene 2"
     style="display:inline"
     transform="translate(-67.585568,42.062477)">
    <text
       xml:space="preserve"
       style="font-style:normal;font-weight:normal;font-size:10.58333302px;line-height:1.25;font-family:sans-serif;letter-spacing:0px;word-spacing:0px;display:inline;fill:#000000;fill-opacity:1;stroke:none;stroke-width:0.26458332"
       x="172.23558"
       y="127.41702"
       id="text3104-1-9-9"><tspan
         sodipodi:role="line"
         style="font-style:normal;font-variant:normal;font-weight:normal;font-stretch:normal;font-size:4.23333311px;font-family:Arial;-inkscape-font-specification:Arial;stroke-width:0.26458332"
         x="172.23558"
         y="127.41702"
         id="tspan3156-2-46"><tspan
   style="font-style:normal;font-variant:normal;font-weight:bold;font-stretch:normal;font-family:Arial;-inkscape-font-specification:'Arial Bold';stroke-width:0.26458332"
   id="tspan3031-5">true</tspan> positive</tspan></text>
    <text
       xml:space="preserve"
       style="font-style:normal;font-weight:normal;font-size:10.58333302px;line-height:1.25;font-family:sans-serif;letter-spacing:0px;word-spacing:0px;display:inline;fill:#000000;fill-opacity:1;stroke:none;stroke-width:0.26458332"
       x="172.14726"
       y="91.793945"
       id="text3104-1-9-8"><tspan
         sodipodi:role="line"
         style="font-style:normal;font-variant:normal;font-weight:normal;font-stretch:normal;font-size:4.23333311px;font-family:Arial;-inkscape-font-specification:Arial;fill:#b3b3b3;stroke-width:0.26458332"
         x="172.14726"
         y="91.793945"
         id="tspan3156-2-6">false positive</tspan></text>
    <text
       xml:space="preserve"
       style="font-style:normal;font-weight:normal;font-size:10.58333302px;line-height:1.25;font-family:sans-serif;letter-spacing:0px;word-spacing:0px;display:inline;fill:#000000;fill-opacity:1;stroke:none;stroke-width:0.26458332"
       x="130.22101"
       y="127.1538"
       id="text3104-1-9-8-4-56"><tspan
         sodipodi:role="line"
         style="font-style:normal;font-variant:normal;font-weight:normal;font-stretch:normal;font-size:4.23333311px;font-family:Arial;-inkscape-font-specification:Arial;stroke-width:0.26458332"
         x="130.22101"
         y="127.1538"
         id="tspan3156-2-6-5-6">false negative</tspan></text>
    <text
       xml:space="preserve"
       style="font-style:normal;font-weight:normal;font-size:10.58333302px;line-height:1.25;font-family:sans-serif;letter-spacing:0px;word-spacing:0px;display:inline;fill:#000000;fill-opacity:1;stroke:none;stroke-width:0.26458332"
       x="130.27075"
       y="91.997726"
       id="text3104-1-9-8-4-5"><tspan
         sodipodi:role="line"
         style="font-style:normal;font-variant:normal;font-weight:normal;font-stretch:normal;font-size:4.23333311px;font-family:Arial;-inkscape-font-specification:Arial;fill:#b3b3b3;stroke-width:0.26458332"
         x="130.27075"
         y="91.997726"
         id="tspan3156-2-6-5-9"><tspan
   style="font-style:normal;font-variant:normal;font-weight:bold;font-stretch:normal;font-family:Arial;-inkscape-font-specification:'Arial Bold';fill:#b3b3b3;stroke-width:0.26458332"
   id="tspan3029">true</tspan> negative</tspan></text>
    <text
       xml:space="preserve"
       style="font-style:normal;font-weight:normal;font-size:10.58333302px;line-height:1.25;font-family:sans-serif;letter-spacing:0px;word-spacing:0px;display:inline;fill:#000000;fill-opacity:1;stroke:none;stroke-width:0.26458332"
       x="172.19012"
       y="28.434845"
       id="text3104-1-9-9-4"><tspan
         sodipodi:role="line"
         style="font-style:normal;font-variant:normal;font-weight:normal;font-stretch:normal;font-size:4.23333311px;font-family:Arial;-inkscape-font-specification:Arial;stroke-width:0.26458332"
         x="172.19012"
         y="28.434845"
         id="tspan3156-2-46-8"><tspan
   style="font-style:normal;font-variant:normal;font-weight:bold;font-stretch:normal;font-family:Arial;-inkscape-font-specification:'Arial Bold';stroke-width:0.26458332"
   id="tspan3031-5-9">true</tspan> positive</tspan></text>
    <text
       xml:space="preserve"
       style="font-style:normal;font-weight:normal;font-size:10.58333302px;line-height:1.25;font-family:sans-serif;letter-spacing:0px;word-spacing:0px;display:inline;fill:#000000;fill-opacity:1;stroke:none;stroke-width:0.26458332"
       x="172.10182"
       y="-7.1882362"
       id="text3104-1-9-8-9"><tspan
         sodipodi:role="line"
         style="font-style:normal;font-variant:normal;font-weight:normal;font-stretch:normal;font-size:4.23333311px;font-family:Arial;-inkscape-font-specification:Arial;fill:#b3b3b3;stroke-width:0.26458332"
         x="172.10182"
         y="-7.1882362"
         id="tspan3156-2-6-7">false positive</tspan></text>
    <text
       xml:space="preserve"
       style="font-style:normal;font-weight:normal;font-size:10.58333302px;line-height:1.25;font-family:sans-serif;letter-spacing:0px;word-spacing:0px;display:inline;fill:#000000;fill-opacity:1;stroke:none;stroke-width:0.26458332"
       x="130.17613"
       y="28.171623"
       id="text3104-1-9-8-4-56-6"><tspan
         sodipodi:role="line"
         style="font-style:normal;font-variant:normal;font-weight:normal;font-stretch:normal;font-size:4.23333311px;font-family:Arial;-inkscape-font-specification:Arial;fill:#b3b3b3;stroke-width:0.26458332"
         x="130.17613"
         y="28.171623"
         id="tspan3156-2-6-5-6-5">false negative</tspan></text>
    <text
       xml:space="preserve"
       style="font-style:normal;font-weight:normal;font-size:10.58333302px;line-height:1.25;font-family:sans-serif;letter-spacing:0px;word-spacing:0px;display:inline;fill:#000000;fill-opacity:1;stroke:none;stroke-width:0.26458332"
       x="130.22588"
       y="-6.9844532"
       id="text3104-1-9-8-4-5-9"><tspan
         sodipodi:role="line"
         style="font-style:normal;font-variant:normal;font-weight:normal;font-stretch:normal;font-size:4.23333311px;font-family:Arial;-inkscape-font-specification:Arial;fill:#b3b3b3;stroke-width:0.26458332"
         x="130.22588"
         y="-6.9844532"
         id="tspan3156-2-6-5-9-2"><tspan
   style="font-style:normal;font-variant:normal;font-weight:bold;font-stretch:normal;font-family:Arial;-inkscape-font-specification:'Arial Bold';fill:#b3b3b3;stroke-width:0.26458332"
   id="tspan3029-3">true</tspan> negative</tspan></text>
    <path
       sodipodi:type="star"
       style="display:inline;fill:#88aa00;stroke-width:0.26458332"
       id="path177-0-3"
       sodipodi:sides="4"
       sodipodi:cx="249.89114"
       sodipodi:cy="-32.065979"
       sodipodi:r1="4.2763128"
       sodipodi:r2="3.0238092"
       sodipodi:arg1="0.78539816"
       sodipodi:arg2="1.5707963"
       inkscape:flatsided="true"
       inkscape:rounded="0"
       inkscape:randomized="0"
       d="m 252.91495,-29.042169 -6.04762,0 0,-6.04762 6.04762,0 z"
       inkscape:transform-center-y="-1.6655418e-006" />
    <path
       sodipodi:type="star"
       style="display:inline;fill:#800080;stroke-width:0.26458332"
       id="path12-0-9"
       sodipodi:sides="5"
       sodipodi:cx="250.50372"
       sodipodi:cy="-19.866873"
       sodipodi:r1="4.0709281"
       sodipodi:r2="2.035464"
       sodipodi:arg1="0.38050638"
       sodipodi:arg2="1.0088249"
       inkscape:flatsided="false"
       inkscape:rounded="0"
       inkscape:randomized="0"
       d="m 254.28348,-18.354968 -2.69515,0.210518 -1.3545,2.339549 -1.03307,-2.49819 -2.6436,-0.56525 2.05668,-1.754484 -0.27933,-2.688893 2.30416,1.41386 2.47097,-1.096578 -0.63263,2.628297 z"
       inkscape:transform-center-x="0.083403134"
       inkscape:transform-center-y="-2.6355462" />
    <text
       xml:space="preserve"
       style="font-style:normal;font-variant:normal;font-weight:normal;font-stretch:normal;font-size:5.64444447px;line-height:1.25;font-family:Arial;-inkscape-font-specification:'Arial, Normal';font-variant-ligatures:normal;font-variant-caps:normal;font-variant-numeric:normal;font-feature-settings:normal;text-align:start;letter-spacing:0px;word-spacing:0px;writing-mode:lr-tb;text-anchor:start;display:inline;fill:#000000;fill-opacity:1;stroke:none;stroke-width:0.26458332"
       x="73.4645"
       y="49.930702"
       id="text3104-1-0"
       inkscape:transform-center-x="24.938328"
       inkscape:transform-center-y="-4.5027537"><tspan
         style="stroke-width:0.26458332"
         sodipodi:role="line"
         id="tspan1238"
         x="73.4645"
         y="49.930702">divided by</tspan></text>
    <text
       xml:space="preserve"
       style="font-style:normal;font-variant:normal;font-weight:normal;font-stretch:normal;font-size:5.64444447px;line-height:1.25;font-family:Arial;-inkscape-font-specification:'Arial, Normal';font-variant-ligatures:normal;font-variant-caps:normal;font-variant-numeric:normal;font-feature-settings:normal;text-align:start;letter-spacing:0px;word-spacing:0px;writing-mode:lr-tb;text-anchor:start;display:inline;fill:#000000;fill-opacity:1;stroke:none;stroke-width:0.26458332"
       x="70.92318"
       y="0.24746856"
       id="text3104-1-0-5"
       inkscape:transform-center-x="24.938328"
       inkscape:transform-center-y="-4.5027537"><tspan
         sodipodi:role="line"
         id="tspan622"
         x="70.92318"
         y="0.24746856">number of true </tspan><tspan
         sodipodi:role="line"
         id="tspan624"
         x="70.92318"
         y="7.3030243">positive results</tspan></text>
    <text
       xml:space="preserve"
       style="font-style:normal;font-variant:normal;font-weight:normal;font-stretch:normal;font-size:5.64444447px;line-height:1.25;font-family:Arial;-inkscape-font-specification:'Arial, Normal';font-variant-ligatures:normal;font-variant-caps:normal;font-variant-numeric:normal;font-feature-settings:normal;text-align:start;letter-spacing:0px;word-spacing:0px;writing-mode:lr-tb;text-anchor:start;display:inline;fill:#000000;fill-opacity:1;stroke:none;stroke-width:0.26458332"
       x="70.159668"
       y="92.521217"
       id="text3104-1-0-5-4"
       inkscape:transform-center-x="24.938328"
       inkscape:transform-center-y="-4.5027537"><tspan
         sodipodi:role="line"
         id="tspan219"
         x="70.159668"
         y="92.521217">number of true </tspan><tspan
         sodipodi:role="line"
         id="tspan221"
         x="70.159668"
         y="99.576775">positive and false</tspan><tspan
         sodipodi:role="line"
         id="tspan223"
         x="70.159668"
         y="106.63233">negative results</tspan></text>
    <text
       xml:space="preserve"
       style="font-style:normal;font-variant:normal;font-weight:normal;font-stretch:normal;font-size:5.64444447px;line-height:1.25;font-family:Arial;-inkscape-font-specification:'Arial, Normal';font-variant-ligatures:normal;font-variant-caps:normal;font-variant-numeric:normal;font-feature-settings:normal;text-align:start;letter-spacing:0px;word-spacing:0px;writing-mode:lr-tb;text-anchor:start;display:inline;fill:#000000;fill-opacity:1;stroke:none;stroke-width:0.26458332"
       x="242.62093"
       y="49.960514"
       id="text3104-1-0-5-2"
       inkscape:transform-center-x="24.938328"
       inkscape:transform-center-y="-4.5027537"><tspan
         style="stroke-width:0.26458332"
         sodipodi:role="line"
         id="tspan1238-4-2"
         x="242.62093"
         y="49.960514">gives recall</tspan></text>
    <text
       xml:space="preserve"
       style="font-style:normal;font-weight:normal;font-size:10.58333302px;line-height:1.25;font-family:sans-serif;letter-spacing:0px;word-spacing:0px;display:inline;fill:#000000;fill-opacity:1;stroke:none;stroke-width:0.26458332"
       x="257.65353"
       y="-30.851543"
       id="text3104-7-2"><tspan
         sodipodi:role="line"
         id="tspan3106-5-49"
         style="font-style:normal;font-variant:normal;font-weight:normal;font-stretch:normal;font-size:4.23333311px;font-family:Arial;-inkscape-font-specification:Arial;stroke-width:0.26458332"
         x="257.65353"
         y="-30.851543">category 1: positive</tspan></text>
    <text
       xml:space="preserve"
       style="font-style:normal;font-weight:normal;font-size:10.58333302px;line-height:1.25;font-family:sans-serif;letter-spacing:0px;word-spacing:0px;display:inline;fill:#000000;fill-opacity:1;stroke:none;stroke-width:0.26458332"
       x="257.60913"
       y="-19.329378"
       id="text3104-7-1-8"><tspan
         sodipodi:role="line"
         id="tspan3106-5-4-2"
         style="font-style:normal;font-variant:normal;font-weight:normal;font-stretch:normal;font-size:4.23333311px;font-family:Arial;-inkscape-font-specification:Arial;stroke-width:0.26458332"
         x="257.60913"
         y="-19.329378">category 2: negative</tspan></text>
    <rect
       style="display:inline;fill:none;fill-opacity:1;stroke:#000000;stroke-width:0.31484601;stroke-miterlimit:4;stroke-dasharray:none;stroke-dashoffset:0;stroke-opacity:0.9453125"
       id="rect538"
       width="51.949238"
       height="21.824574"
       x="245.12682"
       y="-36.690964" />
  </g>
  <g
     inkscape:groupmode="layer"
     id="layer4"
     inkscape:label="Ebene 3"
     style="display:inline"
     transform="translate(-67.585568,42.062477)">
    <text
       xml:space="preserve"
       style="font-style:normal;font-variant:normal;font-weight:normal;font-stretch:normal;font-size:1.41111111px;line-height:1.25;font-family:Arial;-inkscape-font-specification:'Arial, Normal';font-variant-ligatures:normal;font-variant-caps:normal;font-variant-numeric:normal;font-feature-settings:normal;text-align:start;letter-spacing:0px;word-spacing:0px;writing-mode:lr;text-anchor:start;display:inline;fill:#000000;fill-opacity:1;stroke:none;stroke-width:0.26458332;"
       x="253.69292"
       y="136.02466"
       id="text240-4"><tspan
         sodipodi:role="line"
         id="tspan1098">Reference: Recall of a binary classification by ischmahl from</tspan><tspan
         sodipodi:role="line"
         id="tspan1100">https://github.com/Machine-Learning-OER-Collection/Machine-Learning-OER-Basics</tspan><tspan
         sodipodi:role="line"
         id="tspan1102">is licensed under CC-BY 4.0.</tspan></text>
    <a
       transform="translate(122.68206,-19.055918)"
       style="display:inline"
       id="a4003"
       xlink:href="https://creativecommons.org/licenses/by/4.0/">
      <g
         transform="matrix(0.09596983,0,0,0.08492487,101.14349,153.99667)"
         id="g260"
         inkscape:export-filename="/mnt/hgfs/Bov/Documents/Work/2007/cc/identity/srr buttons/big/by.png"
         inkscape:export-xdpi="300.23013"
         inkscape:export-ydpi="300.23013">
        <path
           id="path3817_1_"
           nodetypes="ccccccc"
           d="m 181.96579,0.51074 114.06396,0.20264 c 1.59375,0 3.01758,-0.23633 3.01758,3.18066 l -0.13965,37.56689 H 179.08737 V 3.75439 c 0,-1.68505 0.16309,-3.24365 2.87842,-3.24365 z"
           style="fill:#aab2ab"
           inkscape:connector-curvature="0" />
        <path
           d="m 297.29636,0 h -116.229 c -1.24658,0 -2.26123,1.01416 -2.26123,2.26074 v 39.49658 c 0,0.28174 0.229,0.51025 0.51074,0.51025 h 119.73047 c 0.28174,0 0.51074,-0.22852 0.51074,-0.51025 V 2.26074 C 299.55807,1.01416 298.54343,0 297.29636,0 Z M 181.06735,1.02148 h 116.229 c 0.68408,0 1.24023,0.55566 1.24023,1.23926 0,0 0,15.94824 0,27.44971 h -83.34424 c -3.04492,5.50586 -8.91113,9.24414 -15.64355,9.24414 -6.73535,0 -12.6001,-3.73486 -15.64355,-9.24414 h -4.07764 c 0,-11.50146 0,-27.44971 0,-27.44971 1e-5,-0.68359 0.55616,-1.23926 1.23975,-1.23926 z"
           id="path263"
           inkscape:connector-curvature="0" />
        <g
           enable-background="new    "
           id="g265">
          <path
             d="m 253.07761,32.95605 c 0.31738,0 0.60742,0.02832 0.87012,0.08398 0.26172,0.05566 0.48535,0.14746 0.67285,0.27539 0.18652,0.12695 0.33203,0.29688 0.43457,0.50781 0.10254,0.21191 0.1543,0.47266 0.1543,0.78418 0,0.33594 -0.0762,0.61523 -0.22949,0.83887 -0.15234,0.22461 -0.37891,0.40723 -0.67773,0.55078 0.41211,0.11816 0.71973,0.3252 0.92285,0.62109 0.20312,0.29589 0.30469,0.65234 0.30469,1.06934 0,0.33594 -0.0654,0.62695 -0.19629,0.87305 -0.13086,0.24512 -0.30762,0.44629 -0.52832,0.60156 -0.22168,0.15625 -0.47461,0.27148 -0.75781,0.3457 -0.28418,0.0752 -0.5752,0.1123 -0.875,0.1123 H 249.936 v -6.66406 h 3.14161 z m -0.1875,2.69532 c 0.26172,0 0.47656,-0.0625 0.64551,-0.18652 0.16797,-0.12402 0.25195,-0.3252 0.25195,-0.60449 0,-0.15527 -0.0283,-0.2832 -0.084,-0.38184 -0.0566,-0.09961 -0.13086,-0.17676 -0.22461,-0.2334 -0.0937,-0.05566 -0.20117,-0.09473 -0.32227,-0.11621 -0.1211,-0.02148 -0.24805,-0.03223 -0.37793,-0.03223 h -1.37402 v 1.55469 z m 0.0859,2.82812 c 0.14355,0 0.28027,-0.01367 0.41113,-0.04199 0.13086,-0.02832 0.24609,-0.0752 0.34668,-0.13965 0.0996,-0.06543 0.17871,-0.1543 0.23828,-0.2666 0.0596,-0.11133 0.0889,-0.25488 0.0889,-0.42871 0,-0.3418 -0.0967,-0.58594 -0.29004,-0.73242 -0.19336,-0.14551 -0.44922,-0.21875 -0.7666,-0.21875 h -1.59961 v 1.82812 z"
             id="path267"
             style="fill:#ffffff"
             inkscape:connector-curvature="0" />
          <path
             d="m 255.78854,32.95605 h 1.64355 l 1.56055,2.63184 1.55078,-2.63184 h 1.63379 l -2.47363,4.10645 v 2.55762 h -1.46875 v -2.59473 z"
             id="path269"
             style="fill:#ffffff"
             inkscape:connector-curvature="0" />
        </g>
        <g
           id="g5908_1_"
           transform="matrix(0.872921,0,0,0.872921,50.12536,143.2144)">
          <path
             id="path5906_1_"
             cx="296.35416"
             ry="22.939548"
             cy="264.3577"
             type="arc"
             rx="22.939548"
             d="m 186.90065,-141.46002 c 0.006,8.68079 -7.02786,15.7215 -15.70808,15.72711 -8.68022,0.006 -15.72206,-7.02734 -15.7271,-15.70807 0,-0.006 0,-0.0123 0,-0.019 -0.005,-8.68079 7.02786,-15.7215 15.70808,-15.72656 8.68135,-0.006 15.72206,7.02734 15.7271,15.70813 0,0.006 0,0.0123 0,0.0184 z"
             style="fill:#ffffff"
             inkscape:connector-curvature="0" />
          <g
             id="g5706_1_"
             transform="translate(-289.6157,99.0653)">
            <path
               id="path5708_1_"
               d="m 473.57574,-253.32751 c 3.48541,3.48541 5.22839,7.75391 5.22839,12.80219 0,5.04938 -1.71277,9.27203 -5.13831,12.66791 -3.63531,3.5766 -7.93182,5.36432 -12.88947,5.36432 -4.89777,0 -9.11987,-1.77319 -12.66513,-5.31952 -3.54581,-3.54584 -5.31845,-7.78302 -5.31845,-12.71271 0,-4.92859 1.77264,-9.19598 5.31845,-12.80219 3.4552,-3.48651 7.67728,-5.22949 12.66513,-5.22949 5.0483,-10e-6 9.31404,1.74297 12.79939,5.22949 z m -23.11798,2.34484 c -2.94672,2.97638 -4.41953,6.46289 -4.41953,10.46234 0,3.99835 1.45828,7.45526 4.37424,10.37067 2.9165,2.9165 6.38849,4.37421 10.41705,4.37421 4.02856,0 7.53015,-1.47223 10.50653,-4.4184 2.82593,-2.73645 4.23944,-6.17706 4.23944,-10.32648 0,-4.11804 -1.43646,-7.61346 -4.30768,-10.48468 -2.87067,-2.87067 -6.34991,-4.30658 -10.43829,-4.30658 -4.0884,1e-5 -7.54638,1.44318 -10.37176,4.32892 z m 7.75449,8.70319 c -0.45029,-0.98169 -1.1243,-1.47284 -2.02322,-1.47284 -1.58917,0 -2.38345,1.07007 -2.38345,3.20911 0,2.13953 0.79428,3.2085 2.38345,3.2085 1.04938,0 1.79892,-0.52075 2.24866,-1.56451 l 2.20276,1.17297 c -1.04993,1.86548 -2.62509,2.79846 -4.72549,2.79846 -1.6199,0 -2.91763,-0.4967 -3.89206,-1.48901 -0.9761,-0.99341 -1.46274,-2.36273 -1.46274,-4.10852 0,-1.71503 0.50229,-3.07654 1.50748,-4.08502 1.00519,-1.00854 2.25702,-1.51257 3.75781,-1.51257 2.22012,0 3.80981,0.87488 4.77081,2.62286 z m 10.36337,0 c -0.45087,-0.98169 -1.11145,-1.47284 -1.98242,-1.47284 -1.62103,0 -2.43213,1.07007 -2.43213,3.20911 0,2.13953 0.8111,3.2085 2.43213,3.2085 1.05109,0 1.78717,-0.52075 2.20728,-1.56451 l 2.25201,1.17297 c -1.04828,1.86548 -2.62122,2.79846 -4.71771,2.79846 -1.61768,0 -2.9126,-0.4967 -3.88647,-1.48901 -0.97217,-0.99341 -1.45935,-2.36273 -1.45935,-4.10852 0,-1.71503 0.49445,-3.07654 1.48285,-4.08502 0.98785,-1.00854 2.2453,-1.51257 3.7735,-1.51257 2.21619,0 3.80365,0.87488 4.76129,2.62286 z"
               inkscape:connector-curvature="0" />
          </g>
        </g>
        <g
           id="g275">
          <circle
             cx="255.55124"
             cy="15.31348"
             r="10.80664"
             id="circle277"
             style="fill:#ffffff" />
          <g
             id="g279">
            <path
               d="m 258.67819,12.18701 c 0,-0.4165 -0.33789,-0.75391 -0.75293,-0.75391 h -4.77344 c -0.41504,0 -0.75293,0.3374 -0.75293,0.75391 v 4.77295 h 1.33105 v 5.65186 h 3.61719 v -5.65186 h 1.33105 v -4.77295 z"
               id="path281"
               inkscape:connector-curvature="0" />
            <circle
               cx="255.53854"
               cy="9.1723604"
               r="1.63281"
               id="circle283" />
          </g>
          <path
             d="m 255.5239,3.40723 c -3.23242,0 -5.96875,1.12793 -8.20801,3.38379 -2.29785,2.3335 -3.44629,5.0957 -3.44629,8.28467 0,3.18897 1.14844,5.93164 3.44629,8.22656 2.29785,2.29443 5.03418,3.44189 8.20801,3.44189 3.21289,0 5.99805,-1.15625 8.35352,-3.47119 2.21973,-2.19727 3.33008,-4.92969 3.33008,-8.19727 0,-3.26758 -1.12988,-6.02881 -3.3877,-8.28467 -2.25977,-2.25585 -5.02442,-3.38378 -8.2959,-3.38378 z m 0.0293,2.09961 c 2.64844,0 4.89746,0.93408 6.74707,2.80127 1.86914,1.84717 2.80371,4.10303 2.80371,6.76758 0,2.68359 -0.91504,4.91064 -2.74512,6.68018 -1.92871,1.90625 -4.19629,2.85889 -6.80566,2.85889 -2.61035,0 -4.85938,-0.94287 -6.74707,-2.82959 -1.88965,-1.88672 -2.83301,-4.12305 -2.83301,-6.70947 0,-2.58691 0.9541,-4.84229 2.8623,-6.76758 1.83009,-1.8672 4.06934,-2.80128 6.71778,-2.80128 z"
             id="path285"
             style="clip-rule:evenodd;fill-rule:evenodd"
             inkscape:connector-curvature="0" />
        </g>
      </g>
    </a>
  </g>
</svg>
